<svg xmlns="http://www.w3.org/2000/svg" width="1024" height="1024" viewBox="0 0 1024 1024" version="1.1"><path d="M 145.462 375.017 C 133.590 378.803, 122.526 389.079, 117.857 400.656 L 115.500 406.500 115.500 479.500 L 115.500 552.500 117.834 558.282 C 120.751 565.510, 125.046 571.194, 131.669 576.594 C 138.373 582.058, 146.326 585.027, 157.750 586.329 L 167 587.383 167 606.790 C 167 629.338, 167.573 631.493, 174.668 635.652 C 178.417 637.848, 179.967 638.170, 185.027 637.804 C 192.515 637.263, 192.255 637.458, 223.136 609.250 L 247.495 587 283.497 586.992 C 303.457 586.988, 322.397 586.523, 326 585.948 C 343.205 583.205, 356.580 572.406, 362.912 556.145 L 365.500 549.500 365.791 483.518 C 365.982 440.211, 365.715 415.168, 365.013 410.647 C 362.767 396.170, 353.651 383.902, 340.197 377.253 L 332.605 373.500 242.053 373.296 C 155.112 373.099, 151.259 373.168, 145.462 375.017 M 237.500 401 C 162.897 401.449, 154.196 401.667, 151.498 403.148 C 147.890 405.127, 145.864 407.334, 143.371 412 C 141.610 415.293, 141.483 419.153, 141.214 477.369 C 140.896 546.087, 140.925 546.463, 147.211 552.918 C 152.636 558.489, 154.967 559, 174.948 559 L 192.960 559 193.230 580.026 L 193.500 601.053 215.997 580.026 L 238.493 559 280.535 559 C 322.162 559, 322.620 558.978, 326.980 556.750 C 329.402 555.513, 332.760 552.771, 334.442 550.658 L 337.500 546.815 337.771 480.909 C 338.035 416.568, 337.994 414.909, 336.030 411.059 C 333.649 406.391, 328.860 402.526, 324 401.348 C 322.075 400.882, 283.150 400.725, 237.500 401 M 694.395 431.500 C 694.396 439.200, 694.553 442.218, 694.743 438.206 C 694.934 434.195, 694.932 427.895, 694.741 424.206 C 694.549 420.518, 694.393 423.800, 694.395 431.500 M 181 449.746 L 181 458.562 195.987 468.031 C 204.230 473.239, 210.980 477.781, 210.987 478.125 C 210.994 478.469, 204.251 482.744, 196.003 487.625 L 181.005 496.500 181.003 505.219 L 181 513.939 206.250 498.719 L 231.500 483.500 231.500 478 L 231.500 472.500 208 457.709 C 195.075 449.574, 183.713 442.470, 182.750 441.924 C 181.140 441.009, 181 441.637, 181 449.746 M 658.349 456 C 658.349 460.675, 658.522 462.587, 658.732 460.250 C 658.943 457.913, 658.943 454.087, 658.732 451.750 C 658.522 449.413, 658.349 451.325, 658.349 456 M 694.430 490 C 694.430 502.925, 694.573 508.212, 694.747 501.750 C 694.921 495.288, 694.921 484.712, 694.747 478.250 C 694.573 471.788, 694.430 477.075, 694.430 490 M 466.389 491.500 C 466.390 498.650, 466.550 501.444, 466.742 497.708 C 466.935 493.973, 466.934 488.123, 466.739 484.708 C 466.545 481.294, 466.387 484.350, 466.389 491.500 M 431.444 511 C 431.444 527.775, 431.581 534.638, 431.748 526.250 C 431.915 517.862, 431.915 504.137, 431.748 495.750 C 431.581 487.363, 431.444 494.225, 431.444 511 M 614.768 502.725 C 616.565 502.947, 619.265 502.943, 620.768 502.715 C 622.271 502.486, 620.800 502.304, 617.500 502.310 C 614.200 502.315, 612.971 502.502, 614.768 502.725 M 240 517.485 L 240 523 269.552 523 L 299.105 523 298.802 517.750 L 298.500 512.500 269.250 512.235 L 240 511.970 240 517.485 M 415.784 542.738 C 418.689 542.941, 423.189 542.939, 425.784 542.734 C 428.378 542.528, 426 542.363, 420.500 542.365 C 415 542.368, 412.878 542.536, 415.784 542.738 M 472.750 542.737 C 475.637 542.939, 480.363 542.939, 483.250 542.737 C 486.137 542.535, 483.775 542.370, 478 542.370 C 472.225 542.370, 469.863 542.535, 472.750 542.737 M 531.784 542.738 C 534.689 542.941, 539.189 542.939, 541.784 542.734 C 544.378 542.528, 542 542.363, 536.500 542.365 C 531 542.368, 528.878 542.536, 531.784 542.738 M 630.784 542.738 C 633.689 542.941, 638.189 542.939, 640.784 542.734 C 643.378 542.528, 641 542.363, 635.500 542.365 C 630 542.368, 627.878 542.536, 630.784 542.738" stroke="none" fill="#1cb669" fill-rule="evenodd"/><path d="M 676.750 418.739 L 671 419.100 671 432.500 L 671 445.900 665.250 446.200 L 659.500 446.500 659.500 456 L 659.500 465.500 665.250 465.800 L 671 466.100 671 492.368 C 671 524.089, 671.504 526.635, 679.341 534.472 C 682.759 537.889, 686.188 540.217, 689.437 541.324 C 695.148 543.270, 707.917 543.553, 714.557 541.881 L 719 540.763 719 531.981 L 719 523.199 710.104 522.849 C 702.945 522.568, 700.769 522.109, 698.966 520.500 C 694.468 516.487, 694 513.525, 694 489.062 L 694 466.060 706.750 465.780 L 719.500 465.500 719.791 456.585 C 720.002 450.127, 719.727 447.443, 718.791 446.850 C 718.081 446.399, 712.212 446.024, 705.750 446.015 L 694 446 694 432 L 694 418 688.250 418.189 C 685.087 418.293, 679.913 418.541, 676.750 418.739 M 749.750 418.739 L 744 419.100 744 432.826 L 744 446.553 739.990 446.170 C 737.785 445.960, 734.843 446.074, 733.453 446.422 C 730.951 447.050, 730.929 447.149, 731.213 456.278 L 731.500 465.500 737.680 465.796 L 743.860 466.092 744.180 493.796 C 744.489 520.512, 744.585 521.689, 746.889 526.788 C 749.844 533.327, 756.461 539.328, 763.176 541.558 C 768.696 543.392, 785.288 543.217, 790 541.275 C 792.430 540.274, 792.491 540.005, 792.179 531.719 L 791.859 523.194 782.847 522.847 C 774.116 522.511, 773.743 522.398, 770.917 519.234 L 768 515.968 768 491.015 L 768 466.062 780.250 465.781 L 792.500 465.500 792.787 456.278 C 793.130 445.274, 793.733 445.690, 778.152 446.180 L 767.996 446.500 767.998 432.250 L 768 418 761.750 418.189 C 758.313 418.293, 752.913 418.541, 749.750 418.739 M 450.407 444.981 C 444.259 446.275, 439.751 448.402, 435.795 451.875 C 433.838 453.594, 431.954 455, 431.608 455 C 431.263 455, 431.173 453.449, 431.408 451.554 C 432.034 446.506, 430.629 445.884, 419.352 446.213 L 409.500 446.500 409.240 494.250 L 408.981 542 419.938 542 L 430.896 542 431.198 510.250 C 431.478 480.841, 431.647 478.206, 433.500 474.513 C 435.799 469.930, 440.629 466.348, 445.823 465.373 C 454.035 463.833, 463.937 469.516, 466.004 476.956 C 466.552 478.926, 466.991 494.167, 466.994 511.283 L 467 542.066 478.250 541.783 L 489.500 541.500 489.669 509.858 C 489.853 475.175, 489.917 474.772, 495.995 469.658 C 499.158 466.996, 504.668 465.015, 508.934 465.006 C 513.124 464.996, 519.784 468.916, 522.212 472.821 C 524.443 476.408, 524.512 477.310, 525 509 L 525.500 541.500 536.750 541.783 L 548 542.066 548 508.980 C 548 482.644, 547.683 474.500, 546.444 469.056 C 542.594 452.126, 531.363 444.143, 512.900 445.212 C 503.500 445.756, 494.139 449.890, 488.717 455.892 L 485.219 459.764 482.208 455.493 C 476.586 447.517, 461.713 442.601, 450.407 444.981 M 596.688 445.094 C 582.918 447.107, 571.614 455.642, 568.491 466.381 C 567.597 469.457, 567.147 472.430, 567.492 472.987 C 567.853 473.571, 572.741 474, 579.033 474 L 589.949 474 591.450 471.097 C 595.015 464.202, 606.839 461.066, 615.245 464.784 C 621.186 467.412, 623.359 470.859, 624.016 478.697 L 624.545 485 612.023 485.008 C 596.393 485.017, 588.180 486.296, 580.500 489.917 C 568.898 495.387, 563.554 503.455, 563.554 515.500 C 563.554 526.978, 569.220 535.904, 579.857 541.186 C 583.855 543.171, 586.029 543.492, 595.500 543.495 C 608.171 543.500, 614.177 541.517, 620.118 535.366 L 623.500 531.865 624 536.683 L 624.500 541.500 635.308 541.784 L 646.116 542.069 645.808 506.284 C 645.511 471.723, 645.424 470.335, 643.271 465.670 C 642.045 463.014, 639.653 459.086, 637.954 456.942 C 633.821 451.724, 622.741 446.324, 613.500 445.024 C 605.589 443.912, 604.749 443.915, 596.688 445.094 M 802.453 447.261 C 802.187 447.954, 810.328 469.596, 820.544 495.355 C 840.557 545.818, 840.054 543.959, 835.922 552.124 C 832.429 559.026, 825.452 562.981, 816.750 562.994 L 813 563 813 571.383 C 813 581.104, 812.836 580.963, 824.124 580.986 C 835.022 581.009, 844.131 576.666, 850.041 568.630 C 851.683 566.397, 855.215 558.929, 857.890 552.035 C 888.710 472.606, 898.040 447.874, 897.510 447.015 C 896.787 445.847, 877.121 445.635, 875.327 446.777 C 874.682 447.187, 868.903 462.593, 862.486 481.011 C 856.068 499.430, 850.705 514.616, 850.567 514.758 C 850.430 514.900, 844.958 500.082, 838.409 481.829 C 831.859 463.577, 825.905 448.048, 825.179 447.321 C 823.355 445.498, 803.151 445.444, 802.453 447.261 M 603 502.926 C 593.125 503.588, 589.755 504.720, 588.023 507.957 C 586.472 510.856, 586.799 517.267, 588.631 519.883 C 591.831 524.452, 600.852 526.282, 609 524.015 C 616.411 521.953, 623.379 513.661, 624.150 505.986 L 624.500 502.500 618.500 502.394 C 615.200 502.336, 608.225 502.575, 603 502.926" stroke="none" fill="#fffefe" fill-rule="evenodd"/><path d="M 0 512.001 L 0 1024.002 512.250 1023.751 L 1024.500 1023.500 1024.751 511.750 L 1025.002 0 512.501 0 L 0 0 0 512.001 M 0.496 512.500 C 0.496 794.100, 0.610 909.151, 0.750 768.168 C 0.890 627.186, 0.890 396.786, 0.750 256.168 C 0.610 115.551, 0.496 230.900, 0.496 512.500 M 145.462 375.017 C 133.590 378.803, 122.526 389.079, 117.857 400.656 L 115.500 406.500 115.500 479.500 L 115.500 552.500 117.834 558.282 C 120.751 565.510, 125.046 571.194, 131.669 576.594 C 138.373 582.058, 146.326 585.027, 157.750 586.329 L 167 587.383 167 606.790 C 167 629.338, 167.573 631.493, 174.668 635.652 C 178.417 637.848, 179.967 638.170, 185.027 637.804 C 192.515 637.263, 192.255 637.458, 223.136 609.250 L 247.495 587 283.497 586.992 C 303.457 586.988, 322.397 586.523, 326 585.948 C 343.205 583.205, 356.580 572.406, 362.912 556.145 L 365.500 549.500 365.791 483.518 C 365.982 440.211, 365.715 415.168, 365.013 410.647 C 362.767 396.170, 353.651 383.902, 340.197 377.253 L 332.605 373.500 242.053 373.296 C 155.112 373.099, 151.259 373.168, 145.462 375.017 M 237.500 401 C 162.897 401.449, 154.196 401.667, 151.498 403.148 C 147.890 405.127, 145.864 407.334, 143.371 412 C 141.610 415.293, 141.483 419.153, 141.214 477.369 C 140.896 546.087, 140.925 546.463, 147.211 552.918 C 152.636 558.489, 154.967 559, 174.948 559 L 192.960 559 193.230 580.026 L 193.500 601.053 215.997 580.026 L 238.493 559 280.535 559 C 322.162 559, 322.620 558.978, 326.980 556.750 C 329.402 555.513, 332.760 552.771, 334.442 550.658 L 337.500 546.815 337.771 480.909 C 338.035 416.568, 337.994 414.909, 336.030 411.059 C 333.649 406.391, 328.860 402.526, 324 401.348 C 322.075 400.882, 283.150 400.725, 237.500 401 M 674.750 418.728 L 671 419.121 671 432.560 L 671 446 665.700 446 C 662.785 446, 659.860 446.540, 659.200 447.200 C 657.951 448.449, 657.501 461.535, 658.607 464.418 C 659.065 465.611, 660.651 466, 665.051 466 L 670.887 466 671.194 494.750 C 671.538 527.080, 671.611 527.428, 679.665 535.201 C 687.064 542.341, 696.859 544.666, 711.138 542.671 C 719.890 541.449, 720.302 540.881, 719.457 531.200 L 718.742 523 711.839 523 C 708.042 523, 703.488 522.395, 701.718 521.655 C 695.546 519.075, 695.547 519.078, 695 491.376 L 694.500 466.054 707 465.777 L 719.500 465.500 719.500 456 L 719.500 446.500 707 446.224 L 694.500 445.947 694.803 431.974 L 695.105 418 686.803 418.168 C 682.236 418.261, 676.813 418.513, 674.750 418.728 M 747.750 418.728 L 744 419.121 744 432.513 L 744 445.905 737.750 446.202 L 731.500 446.500 731.500 456 L 731.500 465.500 737.750 465.798 L 744 466.095 744 492.433 C 744 522.530, 744.617 526.011, 751.290 533.592 C 758.444 541.720, 769.308 545.037, 782.215 543.035 C 792.491 541.440, 793.378 540.777, 792.622 535.260 C 792.280 532.763, 792 528.984, 792 526.860 L 792 523 784.750 522.998 C 776.490 522.997, 771.262 520.970, 769.279 517 C 768.384 515.210, 768.025 507.621, 768.015 490.281 L 768 466.062 780.250 465.781 L 792.500 465.500 792.500 456 L 792.500 446.500 780.250 446.219 L 768 445.938 768 431.969 L 768 418 759.750 418.168 C 755.212 418.261, 749.813 418.513, 747.750 418.728 M 181 449.746 L 181 458.562 195.987 468.031 C 204.230 473.239, 210.980 477.781, 210.987 478.125 C 210.994 478.469, 204.251 482.744, 196.003 487.625 L 181.005 496.500 181.003 505.219 L 181 513.939 206.250 498.719 L 231.500 483.500 231.500 478 L 231.500 472.500 208 457.709 C 195.075 449.574, 183.713 442.470, 182.750 441.924 C 181.140 441.009, 181 441.637, 181 449.746 M 448.500 445.406 C 442.497 446.889, 438.447 448.971, 434.750 452.475 L 432 455.081 431.985 451.790 C 431.959 446.165, 431.380 445.898, 419.918 446.213 L 409.500 446.500 409.240 493.935 C 409.036 531.220, 409.250 541.541, 410.240 542.170 C 412.289 543.470, 429.438 543.162, 430.800 541.800 C 431.682 540.918, 432.004 532.237, 432.016 509.050 C 432.033 478.257, 432.086 477.405, 434.267 473.556 C 437.369 468.079, 442.135 465.508, 449.011 465.601 C 457.317 465.714, 464.487 470.424, 465.488 476.425 C 465.770 478.116, 466.207 493.349, 466.458 510.276 C 466.709 527.203, 467.185 541.491, 467.516 542.026 C 468.407 543.467, 487.334 543.266, 488.800 541.800 C 489.682 540.918, 490 532.400, 490 509.701 C 490 475.543, 490.209 474.227, 496.391 469.519 C 506.032 462.175, 518.219 464.903, 523.110 475.500 C 524.778 479.114, 524.958 482.505, 524.978 510.643 C 524.997 538.106, 525.187 541.858, 526.582 542.393 C 528.637 543.182, 544.363 543.182, 546.418 542.393 C 547.818 541.856, 547.999 537.862, 547.988 507.643 C 547.979 482.356, 547.630 472.203, 546.641 468.500 C 542.087 451.453, 531.727 444.259, 513.098 445.208 C 503.204 445.712, 496.770 448.406, 489.537 455.073 L 485.253 459.021 482.546 455.471 C 475.388 446.087, 461.890 442.097, 448.500 445.406 M 597.500 444.633 C 591.383 445.578, 582.367 449.149, 578 452.355 C 572.757 456.204, 568.061 464.123, 567.729 469.674 L 567.500 473.500 578.235 473.784 L 588.969 474.067 593.235 469.631 C 598.104 464.567, 603.953 462.466, 610.461 463.442 C 619.524 464.801, 624 470.265, 624 479.968 L 624 485 610.684 485 C 585.295 485, 573.407 489.616, 566.449 502.176 C 563.873 506.827, 563.500 508.512, 563.500 515.500 C 563.500 522.498, 563.871 524.170, 566.466 528.856 C 572.053 538.943, 581.684 544.173, 595 544.354 C 605.441 544.495, 612.510 542.145, 618.886 536.413 L 624 531.815 624 536.888 C 624 543.003, 624.498 543.229, 637 542.795 L 645.500 542.500 645.764 508.552 C 645.980 480.707, 645.757 473.675, 644.522 469.429 C 641.313 458.390, 632.779 449.821, 621.651 446.465 C 616.310 444.854, 602.733 443.824, 597.500 444.633 M 802.418 447.353 C 802.133 448.097, 810.202 469.683, 820.350 495.323 C 837.969 539.839, 838.759 542.127, 837.866 546.099 C 835.485 556.698, 830.012 561.507, 819.025 562.655 L 813 563.285 813 571.535 C 813 581.264, 812.681 581, 824.422 581 C 831.626 581, 833.459 580.611, 838.778 577.953 C 845.293 574.697, 849.782 570.308, 852.954 564.090 C 856.909 556.337, 898.073 448.632, 897.576 447.336 C 897.190 446.333, 894.311 446, 886.015 446 L 874.968 446 873.510 449.250 C 872.312 451.920, 862.246 480.575, 852.738 508.382 C 851.415 512.252, 850.472 513.791, 849.982 512.882 C 849.572 512.122, 844.163 497.325, 837.960 480 C 831.758 462.675, 826.250 447.938, 825.719 447.250 C 824.296 445.405, 803.130 445.499, 802.418 447.353 M 608.500 503.020 C 589.486 503.680, 587 504.926, 587 513.799 C 587 520.978, 592.566 524.995, 602.500 524.985 C 611.593 524.975, 622.005 516.820, 623.569 508.482 C 624.718 502.362, 624.960 502.449, 608.500 503.020 M 240 517.485 L 240 523 269.552 523 L 299.105 523 298.802 517.750 L 298.500 512.500 269.250 512.235 L 240 511.970 240 517.485" stroke="none" fill="#0c1723" fill-rule="evenodd"/></svg>
